<svg width="37" height="29" viewBox="0 0 37 29" fill="none" xmlns="http://www.w3.org/2000/svg">
<rect opacity="0.2" x="5.8519" y="7.08994" width="21.1852" height="20.9101" rx="2.20106" fill="#28457C"/>
<rect opacity="0.7" x="4.47641" y="5.71449" width="21.1852" height="20.9101" rx="2.20106" fill="#4E7DDA"/>
<g filter="url(#filter0_d_6_39)">
<path d="M2 4.20106C2 2.98544 2.98545 2 4.20106 2H8.75317C9.34277 2 9.90772 2.23655 10.3214 2.65664L11.7064 4.06299C12.1201 4.48308 12.6851 4.71962 13.2747 4.71962H22.0847C23.3003 4.71962 24.2857 5.70507 24.2857 6.92068V22.4973C24.2857 23.713 23.3003 24.6984 22.0847 24.6984H4.20106C2.98545 24.6984 2 23.713 2 22.4973V4.20106Z" fill="url(#paint0_linear_6_39)"/>
<path d="M24.218 6.92068V22.4973C24.218 23.6756 23.2629 24.6307 22.0847 24.6307H4.20106C3.02282 24.6307 2.06767 23.6756 2.06767 22.4974V4.20106C2.06767 3.02282 3.02282 2.06767 4.20106 2.06767H8.75317C9.32464 2.06767 9.87222 2.29694 10.2732 2.70412L11.6582 4.11047C12.0846 4.54347 12.6669 4.78729 13.2747 4.78729H22.0847C23.2629 4.78729 24.218 5.74244 24.218 6.92068Z" stroke="#FFE4CE" stroke-width="0.135335"/>
</g>
<path d="M36.0601 5.62302C36.1616 5.62302 36.2439 5.54071 36.2439 5.43918C36.2439 5.33764 36.1616 5.25533 36.0601 5.25533V5.62302ZM32 5.62302H36.0601V5.25533H32V5.62302Z" fill="#0F122C"/>
<path d="M36.0601 7.90266C36.1616 7.90266 36.2439 7.82035 36.2439 7.71881C36.2439 7.61728 36.1616 7.53497 36.0601 7.53497V7.90266ZM32 7.90266H36.0601V7.53497H32V7.90266Z" fill="#0F122C"/>
<path d="M36.0601 10.1823C36.1616 10.1823 36.2439 10.1 36.2439 9.9985C36.2439 9.89697 36.1616 9.81466 36.0601 9.81466V10.1823ZM32 10.1823H36.0601V9.81466H32V10.1823Z" fill="#0F122C"/>
<path d="M36.0601 12.462C36.1616 12.462 36.2439 12.3797 36.2439 12.2782C36.2439 12.1766 36.1616 12.0943 36.0601 12.0943V12.462ZM32 12.462H36.0601V12.0943H32V12.462Z" fill="#0F122C"/>
<path d="M36.0601 14.7416C36.1616 14.7416 36.2439 14.6593 36.2439 14.5578C36.2439 14.4563 36.1616 14.374 36.0601 14.374V14.7416ZM32 14.7416H36.0601V14.374H32V14.7416Z" fill="#0F122C"/>
<path d="M36.0601 17.0213C36.1616 17.0213 36.2439 16.939 36.2439 16.8375C36.2439 16.736 36.1616 16.6536 36.0601 16.6536V17.0213ZM32 17.0213H36.0601V16.6536H32V17.0213Z" fill="#0F122C"/>
<path d="M36.0601 19.301C36.1616 19.301 36.2439 19.2187 36.2439 19.1172C36.2439 19.0156 36.1616 18.9333 36.0601 18.9333V19.301ZM32 19.301H36.0601V18.9333H32V19.301Z" fill="#0F122C"/>
<path d="M36.0601 21.5806C36.1616 21.5806 36.2439 21.4983 36.2439 21.3968C36.2439 21.2953 36.1616 21.213 36.0601 21.213V21.5806ZM32 21.5806H36.0601V21.213H32V21.5806Z" fill="#0F122C"/>
<defs>
<filter id="filter0_d_6_39" x="0.266667" y="0.266667" width="27.4032" height="27.8159" filterUnits="userSpaceOnUse" color-interpolation-filters="sRGB">
<feFlood flood-opacity="0" result="BackgroundImageFix"/>
<feColorMatrix in="SourceAlpha" type="matrix" values="0 0 0 0 0 0 0 0 0 0 0 0 0 0 0 0 0 0 127 0" result="hardAlpha"/>
<feOffset dx="0.825397" dy="0.825397"/>
<feGaussianBlur stdDeviation="1.27937"/>
<feComposite in2="hardAlpha" operator="out"/>
<feColorMatrix type="matrix" values="0 0 0 0 0.265513 0 0 0 0 0.167677 0 0 0 0 0.075861 0 0 0 0.22 0"/>
<feBlend mode="normal" in2="BackgroundImageFix" result="effect1_dropShadow_6_39"/>
<feBlend mode="normal" in="SourceGraphic" in2="effect1_dropShadow_6_39" result="shape"/>
</filter>
<linearGradient id="paint0_linear_6_39" x1="2" y1="2.5282" x2="24.2857" y2="24.1702" gradientUnits="userSpaceOnUse">
<stop stop-color="#6F73F6"/>
<stop offset="1" stop-color="#F7DFFF"/>
</linearGradient>
</defs>
</svg>
